<?xml version="1.0" ?><svg viewBox="0 0 64 64" xmlns="http://www.w3.org/2000/svg"><g id="game"><path d="M48.08,38A14,14,0,0,1,49,43v8.69A9.2,9.2,0,0,1,40.6,61a9,9,0,0,1-9.46-7.37A2,2,0,0,0,29.19,52H22.81a2,2,0,0,0-1.95,1.61A9,9,0,0,1,11.4,61,9.2,9.2,0,0,1,3,51.69V43A14,14,0,0,1,15,29.14" style="fill:none;stroke:#0a1c28;stroke-linejoin:round;stroke-width:2px"/><line style="fill:none;stroke:#0a1c28;stroke-linecap:round;stroke-linejoin:round;stroke-width:4px" x1="14" x2="14" y1="40" y2="48"/><line style="fill:none;stroke:#0a1c28;stroke-linecap:round;stroke-linejoin:round;stroke-width:4px" x1="10" x2="18" y1="44" y2="44"/><circle cx="38" cy="40" r="2" style="fill:#0a1c28"/><circle cx="38" cy="48" r="2" style="fill:#0a1c28"/><circle cx="34" cy="44" r="2" style="fill:#0a1c28"/><circle cx="42" cy="44" r="2" style="fill:#0a1c28"/><path d="M32.86,31.61A9,9,0,0,1,23.4,39,9.2,9.2,0,0,1,15,29.69V21A14,14,0,0,1,29,7H47A14,14,0,0,1,61,21v8.69A9.2,9.2,0,0,1,52.6,39a9,9,0,0,1-9.46-7.37,2,2,0,0,0-2-1.61H34.81A2,2,0,0,0,32.86,31.61Z" style="fill:none;stroke:#0a1c28;stroke-linejoin:round;stroke-width:2px"/><line style="fill:none;stroke:#0a1c28;stroke-linecap:round;stroke-linejoin:round;stroke-width:4px" x1="26" x2="26" y1="16" y2="24"/><line style="fill:none;stroke:#0a1c28;stroke-linecap:round;stroke-linejoin:round;stroke-width:4px" x1="22" x2="30" y1="20" y2="20"/><circle cx="50" cy="16" r="2" style="fill:#0a1c28"/><circle cx="50" cy="24" r="2" style="fill:#0a1c28"/><circle cx="46" cy="20" r="2" style="fill:#0a1c28"/><circle cx="54" cy="20" r="2" style="fill:#0a1c28"/><path d="M2,3H36a2,2,0,0,1,2,2V7" style="fill:none;stroke:#0a1c28;stroke-linejoin:round;stroke-width:2px"/></g></svg>